<mxfile host="app.diagrams.net" modified="2022-03-31T03:58:47.411Z" agent="5.0 (Windows NT 10.0; Win64; x64) AppleWebKit/537.36 (KHTML, like Gecko) Chrome/99.0.4844.84 Safari/537.36" etag="Jjg60GxPwXM5yGmdDX0E" version="17.2.4" type="github">
  <diagram id="g_X-KgsLAW-S4ZSMYoeg" name="Page-1">
    <mxGraphModel dx="1038" dy="579" grid="1" gridSize="10" guides="1" tooltips="1" connect="1" arrows="1" fold="1" page="1" pageScale="1" pageWidth="1654" pageHeight="2336" math="0" shadow="0">
      <root>
        <mxCell id="0" />
        <mxCell id="1" parent="0" />
        <mxCell id="l8q1PCvS_Y2hLmEK7gph-1" value="Developer" style="rounded=0;whiteSpace=wrap;html=1;" vertex="1" parent="1">
          <mxGeometry x="40" y="70" width="120" height="30" as="geometry" />
        </mxCell>
        <mxCell id="l8q1PCvS_Y2hLmEK7gph-2" value="Manager" style="rounded=0;whiteSpace=wrap;html=1;" vertex="1" parent="1">
          <mxGeometry x="220" y="70" width="120" height="30" as="geometry" />
        </mxCell>
        <mxCell id="l8q1PCvS_Y2hLmEK7gph-3" value="Tester" style="rounded=0;whiteSpace=wrap;html=1;" vertex="1" parent="1">
          <mxGeometry x="380" y="70" width="120" height="30" as="geometry" />
        </mxCell>
      </root>
    </mxGraphModel>
  </diagram>
</mxfile>
